<svg xmlns="http://www.w3.org/2000/svg" viewBox="0 0 24 24" width="24" height="24"><title>heavy equipment tractor</title><g class="nc-icon-wrapper" fill="#111111"><path d="M10.875 18.625a6.747 6.747 0 0 1 11.871-4.393.5.5 0 0 0 .879-.326v-1.784c0-.29-.026-.764-.058-1.053l-.89-8a1.07 1.07 0 0 0-1.052-.942h-7.5a1.193 1.193 0 0 0-1.116.848l-2.263 8.152H3.125a1.166 1.166 0 0 0-1.1.865l-.909 3.673a.5.5 0 0 0 .679.581 4.75 4.75 0 0 1 6.585 4.381.5.5 0 0 0 .5.5h1.781a.5.5 0 0 0 .48-.638 6.733 6.733 0 0 1-.266-1.864zm8.84-10.736a.5.5 0 0 1-.314.464l-5.59 2.236a.508.508 0 0 1-.186.036.5.5 0 0 1-.476-.652l1.757-5.5a.5.5 0 0 1 .476-.348h3.833a.5.5 0 0 1 .5.5z"/><path d="M22.875 18.625a5.25 5.25 0 1 0-5.25 5.25 5.256 5.256 0 0 0 5.25-5.25zm-5.25 2.5a2.5 2.5 0 1 1 2.5-2.5 2.5 2.5 0 0 1-2.5 2.5z"/><path d="M3.625 17.375a3.25 3.25 0 1 0 3.25 3.25 3.254 3.254 0 0 0-3.25-3.25zm0 4.5a1.25 1.25 0 1 1 1.25-1.25 1.25 1.25 0 0 1-1.249 1.25z"/><path d="M5.625 2.125h.5v3.086a1.5 1.5 0 0 0-1 1.414v2.5a.5.5 0 0 0 .5.5h3a.5.5 0 0 0 .5-.5v-2.5a1.5 1.5 0 0 0-1-1.414V1.125a1 1 0 0 0-1-1h-1.5a1 1 0 0 0 0 2z"/></g></svg>