<svg width="97" height="96" viewBox="0 0 97 96" fill="none" xmlns="http://www.w3.org/2000/svg">
<path d="M44 74.5001C43.997 68.9838 45.6845 63.5992 48.8351 59.0712C51.9857 54.5433 56.4482 51.0895 61.6215 49.1751C66.7949 47.2606 72.4306 46.9774 77.7699 48.3636C83.1091 49.7498 87.8953 52.7388 91.484 56.9281C91.7503 57.2375 92.1049 57.4581 92.5002 57.5601C92.8956 57.6621 93.3126 57.6407 93.6954 57.4987C94.0782 57.3568 94.4084 57.101 94.6416 56.7659C94.8748 56.4308 94.9999 56.0323 95 55.6241V48.4881C95 47.3281 94.896 45.4321 94.768 44.2761L91.208 12.2761C91.0837 11.2441 90.5881 10.2927 89.8138 9.59933C89.0395 8.90598 88.0393 8.51808 87 8.50806H57C55.9932 8.5301 55.0191 8.87009 54.2173 9.47936C53.4155 10.0886 52.827 10.936 52.536 11.9001L43.484 44.5081H13C11.9909 44.531 11.0166 44.8807 10.2232 45.5046C9.42985 46.1285 8.86027 46.9929 8.59998 47.9681L4.96398 62.6601C4.87497 63.02 4.88781 63.3977 5.00104 63.7508C5.11428 64.1039 5.32346 64.4186 5.60523 64.6597C5.88699 64.9008 6.23023 65.0588 6.59661 65.1161C6.96299 65.1734 7.33808 65.1277 7.67998 64.9841C10.5677 63.7746 13.7096 63.2974 16.8263 63.5951C19.9429 63.8927 22.9377 64.9559 25.5443 66.6901C28.1509 68.4243 30.2886 70.7757 31.7673 73.5354C33.246 76.295 34.0198 79.3772 34.02 82.5081C34.02 83.0385 34.2307 83.5472 34.6058 83.9223C34.9808 84.2973 35.4895 84.5081 36.02 84.5081H43.144C43.4536 84.5077 43.7589 84.4355 44.0358 84.2971C44.3127 84.1587 44.5537 83.9578 44.7399 83.7105C44.926 83.4631 45.0521 83.1758 45.1084 82.8714C45.1646 82.567 45.1494 82.2536 45.064 81.9561C44.3618 79.5328 44.0037 77.023 44 74.5001ZM79.36 31.5561C79.3599 31.9555 79.2402 32.3457 79.0163 32.6765C78.7925 33.0073 78.4747 33.2635 78.104 33.4121L55.744 42.3561C55.5072 42.4503 55.2548 42.4991 55 42.5001C54.6854 42.4998 54.3752 42.4254 54.0948 42.2828C53.8144 42.1402 53.5715 41.9334 53.386 41.6793C53.2005 41.4252 53.0775 41.131 53.0271 40.8204C52.9768 40.5098 53.0003 40.1918 53.096 39.8921L60.124 17.8921C60.2529 17.4882 60.5067 17.1357 60.849 16.8855C61.1912 16.6353 61.604 16.5003 62.028 16.5001H77.36C77.8904 16.5001 78.3991 16.7108 78.7742 17.0858C79.1493 17.4609 79.36 17.9696 79.36 18.5001V31.5561Z" fill="white"/>
<path d="M92 74.5C92 70.3466 90.7684 66.2865 88.4609 62.833C86.1534 59.3796 82.8736 56.688 79.0364 55.0985C75.1991 53.5091 70.9767 53.0932 66.9031 53.9035C62.8295 54.7138 59.0877 56.7139 56.1508 59.6508C53.2139 62.5877 51.2138 66.3295 50.4035 70.4031C49.5932 74.4767 50.0091 78.6991 51.5985 82.5364C53.188 86.3736 55.8796 89.6534 59.333 91.9609C62.7865 94.2684 66.8466 95.5 71 95.5C76.5676 95.4937 81.9054 93.2791 85.8422 89.3422C89.7791 85.4054 91.9937 80.0676 92 74.5ZM71 84.5C69.0222 84.5 67.0888 83.9135 65.4443 82.8147C63.7998 81.7159 62.5181 80.1541 61.7612 78.3269C61.0043 76.4996 60.8063 74.4889 61.1922 72.5491C61.578 70.6093 62.5304 68.8275 63.9289 67.4289C65.3275 66.0304 67.1093 65.078 69.0491 64.6922C70.9889 64.3063 72.9996 64.5043 74.8269 65.2612C76.6541 66.0181 78.2159 67.2998 79.3147 68.9443C80.4135 70.5888 81 72.5222 81 74.5C81 75.8132 80.7414 77.1136 80.2388 78.3269C79.7363 79.5401 78.9997 80.6425 78.0711 81.5711C77.1425 82.4997 76.0401 83.2363 74.8269 83.7388C73.6136 84.2414 72.3132 84.5 71 84.5Z" fill="white"/>
<path d="M15 69.5C12.4289 69.5 9.91543 70.2624 7.77759 71.6909C5.63975 73.1194 3.97351 75.1497 2.98957 77.5251C2.00563 79.9006 1.74819 82.5144 2.2498 85.0362C2.75141 87.5579 3.98954 89.8743 5.80762 91.6924C7.6257 93.5105 9.94208 94.7486 12.4638 95.2502C14.9856 95.7518 17.5995 95.4944 19.9749 94.5104C22.3503 93.5265 24.3807 91.8602 25.8091 89.7224C27.2376 87.5846 28 85.0712 28 82.5C27.9958 79.0535 26.6248 75.7493 24.1877 73.3123C21.7507 70.8752 18.4465 69.5042 15 69.5ZM15 87.5C14.0111 87.5 13.0444 87.2068 12.2222 86.6573C11.3999 86.1079 10.759 85.327 10.3806 84.4134C10.0022 83.4998 9.90315 82.4945 10.0961 81.5245C10.289 80.5546 10.7652 79.6637 11.4645 78.9645C12.1637 78.2652 13.0547 77.789 14.0246 77.5961C14.9945 77.4032 15.9998 77.5022 16.9134 77.8806C17.8271 78.259 18.608 78.8999 19.1574 79.7221C19.7068 80.5444 20 81.5111 20 82.5C20 83.8254 19.4738 85.0965 18.537 86.0341C17.6001 86.9717 16.3294 87.4989 15.004 87.5H15Z" fill="white"/>
<path d="M23 8.5H25V20.844C23.8303 21.2575 22.8176 22.0235 22.1013 23.0364C21.3849 24.0493 21.0002 25.2594 21 26.5V36.5C21 37.0304 21.2107 37.5391 21.5858 37.9142C21.9609 38.2893 22.4696 38.5 23 38.5H35C35.5304 38.5 36.0391 38.2893 36.4142 37.9142C36.7893 37.5391 37 37.0304 37 36.5V26.5C36.9998 25.2594 36.6151 24.0493 35.8987 23.0364C35.1824 22.0235 34.1697 21.2575 33 20.844V4.5C33 3.43913 32.5786 2.42172 31.8284 1.67157C31.0783 0.921427 30.0609 0.5 29 0.5H23C21.9391 0.5 20.9217 0.921427 20.1716 1.67157C19.4214 2.42172 19 3.43913 19 4.5C19 5.56087 19.4214 6.57828 20.1716 7.32843C20.9217 8.07857 21.9391 8.5 23 8.5Z" fill="white"/>
</svg>
